<svg width="24" height="24" viewBox="0 0 24 24" fill="none" xmlns="http://www.w3.org/2000/svg">
    <path d="M11.1778 4.43099C11.2696 4.29775 11.3923 4.18881 11.5355 4.11355C11.6787 4.03829 11.838 3.99896 11.9998 3.99896C12.1616 3.99896 12.3209 4.03829 12.4641 4.11355C12.6073 4.18881 12.7301 4.29775 12.8218 4.43099L21.8218 17.431C21.926 17.5809 21.9871 17.7566 21.9984 17.9388C22.0098 18.121 21.971 18.3029 21.8863 18.4646C21.8016 18.6263 21.6741 18.7618 21.5179 18.8561C21.3616 18.9505 21.1824 19.0003 20.9998 19H2.99981C2.81766 18.9992 2.63915 18.9489 2.4835 18.8542C2.32784 18.7596 2.20092 18.6244 2.11638 18.463C2.03185 18.3017 1.9929 18.1203 2.00372 17.9385C2.01455 17.7566 2.07474 17.5812 2.17781 17.431L11.1778 4.43099Z" fill="white"/>
</svg>
    