<svg version="1.2" xmlns="http://www.w3.org/2000/svg" viewBox="0 0 73 70" width="73" height="70">
	<title>dolar-svg</title>
	<style>
		.s0 { fill: #2b2716 } 
	</style>
	<path id="Layer" fill-rule="evenodd" class="s0" d="m36.5 70c-20.2 0-36.5-15.7-36.5-35 0-19.3 16.3-35 36.5-35 20.2 0 36.5 15.7 36.5 35 0 19.3-16.3 35-36.5 35zm-3.6-24.5h-0.2c-1 0-1.8-0.3-2.5-1-0.6-0.6-1-1.4-1-2.3 0-0.9-0.4-1.8-1.1-2.5-0.7-0.7-1.6-1-2.5-1-1 0-1.9 0.3-2.6 1-0.7 0.7-1.1 1.6-1.1 2.5 0 2.7 1.1 5.3 3.2 7.3 2 1.9 4.7 3 7.6 3h0.2v3.5c0 0.9 0.3 1.8 1 2.5 0.7 0.6 1.6 1 2.6 1 1 0 1.9-0.4 2.6-1 0.7-0.7 1-1.6 1-2.5v-3.5c3 0 5.7-1.1 7.8-3.1 2-1.9 3.2-4.6 3.2-7.4 0-2.8-1.2-5.5-3.2-7.4-2.1-2-4.8-3.1-7.8-3.1v-7h0.1c2 0 3.6 1.5 3.6 3.4 0 1 0.4 1.8 1.1 2.5 0.7 0.7 1.6 1 2.6 1 0.9 0 1.8-0.3 2.5-1 0.7-0.7 1.1-1.5 1.1-2.5 0-2.7-1.1-5.4-3.2-7.3-2-2-4.8-3.1-7.7-3.1h-0.1v-3.5c0-0.9-0.3-1.8-1-2.5-0.7-0.6-1.6-1-2.6-1-1 0-1.9 0.4-2.6 1-0.7 0.7-1 1.6-1 2.5v3.5c-1.5 0-2.9 0.3-4.2 0.8-1.4 0.5-2.6 1.3-3.6 2.3-1 1-1.8 2.1-2.4 3.4-0.5 1.3-0.8 2.6-0.8 4 0 1.4 0.3 2.7 0.8 4 0.6 1.3 1.4 2.4 2.4 3.4 1 1 2.2 1.8 3.6 2.3 1.3 0.5 2.7 0.8 4.2 0.8zm0-21v7c-1 0-1.9-0.4-2.6-1-0.7-0.7-1.1-1.6-1.1-2.5 0-0.9 0.4-1.8 1.1-2.5 0.7-0.6 1.6-1 2.6-1zm7.2 21v-7c1 0 1.9 0.4 2.6 1 0.7 0.7 1.1 1.6 1.1 2.5 0 0.9-0.4 1.8-1.1 2.5-0.7 0.6-1.6 1-2.6 1z"/>
</svg>