<svg width="73" height="70" viewBox="0 0 73 70" fill="none" xmlns="http://www.w3.org/2000/svg">
    <path d="M32.85 45.5H32.6638C31.7452 45.5 30.8641 45.1501 30.2145 44.5272C29.5649 43.9043 29.2 43.0594 29.2 42.1785C29.2 41.2502 28.8154 40.36 28.1309 39.7036C27.4464 39.0472 26.518 38.6785 25.55 38.6785C24.582 38.6785 23.6536 39.0472 22.9691 39.7036C22.2846 40.36 21.9 41.2502 21.9 42.1785C21.9 44.9159 23.034 47.5412 25.0527 49.4769C27.0713 51.4126 29.8091 52.5 32.6638 52.5H32.85V56C32.85 56.9283 33.2346 57.8185 33.9191 58.4749C34.6036 59.1313 35.532 59.5 36.5 59.5C37.468 59.5 38.3964 59.1313 39.0809 58.4749C39.7654 57.8185 40.15 56.9283 40.15 56V52.5C43.0541 52.5 45.8393 51.3938 47.8928 49.4246C49.9463 47.4555 51.1 44.7848 51.1 42C51.1 39.2152 49.9463 36.5445 47.8928 34.5754C45.8393 32.6063 43.0541 31.5 40.15 31.5V24.5H40.2303C42.2013 24.5 43.8 26.033 43.8 27.923C43.8 28.8513 44.1846 29.7415 44.8691 30.3979C45.5536 31.0543 46.482 31.423 47.45 31.423C48.418 31.423 49.3464 31.0543 50.0309 30.3979C50.7154 29.7415 51.1 28.8513 51.1 27.923C51.1 25.1587 49.9548 22.5075 47.9163 20.5528C45.8779 18.5981 43.1131 17.5 40.2303 17.5H40.15V14C40.15 13.0717 39.7654 12.1815 39.0809 11.5251C38.3964 10.8687 37.468 10.5 36.5 10.5C35.532 10.5 34.6036 10.8687 33.9191 11.5251C33.2346 12.1815 32.85 13.0717 32.85 14V17.5C31.412 17.5 29.9881 17.7716 28.6596 18.2993C27.3311 18.8269 26.124 19.6004 25.1072 20.5754C24.0904 21.5504 23.2838 22.7079 22.7335 23.9818C22.1832 25.2557 21.9 26.6211 21.9 28C21.9 29.3789 22.1832 30.7443 22.7335 32.0182C23.2838 33.2921 24.0904 34.4496 25.1072 35.4246C26.124 36.3996 27.3311 37.1731 28.6596 37.7007C29.9881 38.2284 31.412 38.5 32.85 38.5V45.5ZM40.15 45.5V38.5C41.118 38.5 42.0464 38.8688 42.7309 39.5251C43.4154 40.1815 43.8 41.0717 43.8 42C43.8 42.9283 43.4154 43.8185 42.7309 44.4749C42.0464 45.1313 41.118 45.5 40.15 45.5ZM32.85 24.5V31.5C31.882 31.5 30.9536 31.1313 30.2691 30.4749C29.5846 29.8185 29.2 28.9283 29.2 28C29.2 27.0717 29.5846 26.1815 30.2691 25.5251C30.9536 24.8688 31.882 24.5 32.85 24.5ZM36.5 70C16.3411 70 0 54.3305 0 35C0 15.6695 16.3411 0 36.5 0C56.6589 0 73 15.6695 73 35C73 54.3305 56.6589 70 36.5 70Z" fill="#E6C413"/>
</svg>
    