<svg width="33" height="33" viewBox="0 0 33 33" fill="none" xmlns="http://www.w3.org/2000/svg">
<path fill-rule="evenodd" clip-rule="evenodd" d="M16.5275 4.125C13.4221 4.125 10.5923 5.15075 8.91828 5.98881C8.76703 6.06444 8.62609 6.13869 8.49478 6.21019C8.2349 6.35181 8.01353 6.48381 7.83753 6.6L9.7419 9.40363L10.6384 9.76044C14.1419 11.528 18.8403 11.528 22.3445 9.76044L23.362 9.23244L25.1632 6.6C24.7901 6.35662 24.402 6.13688 24.0013 5.94206C22.3362 5.11294 19.5745 4.125 16.5275 4.125ZM12.098 7.2985C11.4236 7.17231 10.7576 7.00517 10.1035 6.798C11.6717 6.10156 14.0092 5.3625 16.5268 5.3625C18.271 5.3625 19.9203 5.71725 21.2843 6.16688C19.6859 6.39169 17.9802 6.77325 16.355 7.24281C15.0762 7.61269 13.5816 7.57281 12.098 7.2985ZM23.0705 10.78L22.902 10.8653C19.0472 12.8095 13.935 12.8095 10.0802 10.8653L9.92065 10.7841C4.13053 17.1373 -0.290095 28.8729 16.5275 28.8729C33.3438 28.8729 28.8152 16.918 23.0705 10.78ZM15.8125 16.5C15.4479 16.5 15.0981 16.6449 14.8403 16.9027C14.5824 17.1606 14.4375 17.5103 14.4375 17.875C14.4375 18.2397 14.5824 18.5894 14.8403 18.8473C15.0981 19.1051 15.4479 19.25 15.8125 19.25V16.5ZM17.1875 15.125V14.4375H15.8125V15.125C15.0832 15.125 14.3837 15.4147 13.868 15.9305C13.3523 16.4462 13.0625 17.1457 13.0625 17.875C13.0625 18.6043 13.3523 19.3038 13.868 19.8195C14.3837 20.3353 15.0832 20.625 15.8125 20.625V23.375C15.5282 23.3751 15.2508 23.287 15.0186 23.1229C14.7864 22.9587 14.6107 22.7266 14.5159 22.4586C14.4552 22.2866 14.3286 22.1458 14.1641 22.0672C13.9996 21.9885 13.8106 21.9785 13.6387 22.0392C13.4667 22.0999 13.3259 22.2264 13.2473 22.391C13.1686 22.5555 13.1586 22.7445 13.2193 22.9164C13.4089 23.4527 13.7601 23.9169 14.2245 24.2453C14.689 24.5737 15.2437 24.75 15.8125 24.75V25.4375H17.1875V24.75C17.9169 24.75 18.6163 24.4603 19.1321 23.9445C19.6478 23.4288 19.9375 22.7293 19.9375 22C19.9375 21.2707 19.6478 20.5712 19.1321 20.0555C18.6163 19.5397 17.9169 19.25 17.1875 19.25V16.5C17.7857 16.5 18.2951 16.8816 18.4848 17.4164C18.513 17.5039 18.5584 17.5849 18.6184 17.6546C18.6784 17.7242 18.7517 17.7811 18.8341 17.8219C18.9165 17.8627 19.0062 17.8866 19.098 17.8921C19.1897 17.8977 19.2817 17.8847 19.3683 17.8541C19.455 17.8235 19.5347 17.7758 19.6026 17.7139C19.6705 17.6519 19.7253 17.577 19.7638 17.4935C19.8022 17.41 19.8235 17.3196 19.8265 17.2277C19.8294 17.1359 19.8138 17.0443 19.7808 16.9586C19.5911 16.4223 19.2399 15.9581 18.7755 15.6297C18.3111 15.3013 17.7563 15.125 17.1875 15.125ZM17.1875 20.625V23.375C17.5522 23.375 17.9019 23.2301 18.1598 22.9723C18.4177 22.7144 18.5625 22.3647 18.5625 22C18.5625 21.6353 18.4177 21.2856 18.1598 21.0277C17.9019 20.7699 17.5522 20.625 17.1875 20.625Z" fill="white"/>
</svg>
