<svg width="24" height="22" viewBox="0 0 24 22" fill="none" xmlns="http://www.w3.org/2000/svg">
    <path d="M16.4299 4.09658L19.9231 7.73544C20.0703 7.88874 20.0703 8.13886 19.9231 8.29216L11.465 17.1029L7.87108 17.5184C7.39086 17.5749 6.98422 17.1513 7.03844 16.6511L7.43734 12.9073L15.8954 4.09658C16.0426 3.94328 16.2827 3.94328 16.4299 4.09658ZM22.7037 3.17274L20.8138 1.20404C20.2252 0.59084 19.2686 0.59084 18.6761 1.20404L17.3051 2.63215C17.1579 2.78545 17.1579 3.03558 17.3051 3.18888L20.7983 6.82774C20.9455 6.98104 21.1856 6.98104 21.3328 6.82774L22.7037 5.39963C23.2924 4.78239 23.2924 3.78594 22.7037 3.17274ZM15.7095 14.7066V18.8134H3.31673V5.90391H12.2163C12.3402 5.90391 12.4564 5.85146 12.5455 5.76271L14.0946 4.14902C14.3889 3.84242 14.1798 3.32201 13.7654 3.32201H2.69709C1.67081 3.32201 0.838165 4.18936 0.838165 5.25843V19.4589C0.838165 20.5279 1.67081 21.3953 2.69709 21.3953H16.3292C17.3555 21.3953 18.1881 20.5279 18.1881 19.4589V13.0929C18.1881 12.6612 17.6885 12.4474 17.3942 12.75L15.8451 14.3637C15.7599 14.4564 15.7095 14.5775 15.7095 14.7066Z" fill="white"/>
</svg>    