<svg width="110" height="107" viewBox="0 0 110 107" fill="none" xmlns="http://www.w3.org/2000/svg">
<ellipse cx="55" cy="53.5" rx="55" ry="53.5" fill="black"/>
<path d="M88.125 87.1875H85V18.6094C85 16.6159 83.3211 15 81.25 15H28.75C26.6789 15 25 16.6159 25 18.6094V87.1875H21.875C20.8395 87.1875 20 87.9956 20 88.9922V92H90V88.9922C90 87.9956 89.1605 87.1875 88.125 87.1875ZM40 26.4297C40 25.433 40.8395 24.625 41.875 24.625H48.125C49.1605 24.625 50 25.433 50 26.4297V32.4453C50 33.442 49.1605 34.25 48.125 34.25H41.875C40.8395 34.25 40 33.442 40 32.4453V26.4297ZM40 40.8672C40 39.8705 40.8395 39.0625 41.875 39.0625H48.125C49.1605 39.0625 50 39.8705 50 40.8672V46.8828C50 47.8795 49.1605 48.6875 48.125 48.6875H41.875C40.8395 48.6875 40 47.8795 40 46.8828V40.8672ZM48.125 63.125H41.875C40.8395 63.125 40 62.317 40 61.3203V55.3047C40 54.308 40.8395 53.5 41.875 53.5H48.125C49.1605 53.5 50 54.308 50 55.3047V61.3203C50 62.317 49.1605 63.125 48.125 63.125ZM60 87.1875H50V74.5547C50 73.558 50.8395 72.75 51.875 72.75H58.125C59.1605 72.75 60 73.558 60 74.5547V87.1875ZM70 61.3203C70 62.317 69.1605 63.125 68.125 63.125H61.875C60.8395 63.125 60 62.317 60 61.3203V55.3047C60 54.308 60.8395 53.5 61.875 53.5H68.125C69.1605 53.5 70 54.308 70 55.3047V61.3203ZM70 46.8828C70 47.8795 69.1605 48.6875 68.125 48.6875H61.875C60.8395 48.6875 60 47.8795 60 46.8828V40.8672C60 39.8705 60.8395 39.0625 61.875 39.0625H68.125C69.1605 39.0625 70 39.8705 70 40.8672V46.8828ZM70 32.4453C70 33.442 69.1605 34.25 68.125 34.25H61.875C60.8395 34.25 60 33.442 60 32.4453V26.4297C60 25.433 60.8395 24.625 61.875 24.625H68.125C69.1605 24.625 70 25.433 70 26.4297V32.4453Z" fill="white"/>
</svg>
