<?xml version="1.0" encoding="UTF-8" standalone="no"?>
<svg width="43" height="42" viewBox="0 0 43 42" fill="none" xmlns="http://www.w3.org/2000/svg">
<path d="M21.5 0.875C10.1447 0.875 0.9375 9.88633 0.9375 21C0.9375 32.1137 10.1447 41.125 21.5 41.125C32.8553 41.125 42.0625 32.1137 42.0625 21C42.0625 9.88633 32.8553 0.875 21.5 0.875ZM30.3813 14.4279L20.7151 27.5451C20.58 27.7297 20.4019 27.8801 20.1956 27.9838C19.9893 28.0875 19.7606 28.1416 19.5287 28.1416C19.2967 28.1416 19.0681 28.0875 18.8617 27.9838C18.6554 27.8801 18.4773 27.7297 18.3422 27.5451L12.6187 19.7826C12.4442 19.5445 12.6187 19.2121 12.917 19.2121H15.0696C15.5378 19.2121 15.983 19.4322 16.2584 19.8096L19.5264 24.2479L26.7416 14.4549C27.017 14.082 27.4576 13.8574 27.9304 13.8574H30.083C30.3813 13.8574 30.5558 14.1898 30.3813 14.4279Z" fill="#34A877"/>
</svg>
