<svg width="53" height="57" viewBox="0 0 53 57" fill="none" xmlns="http://www.w3.org/2000/svg">
    <path d="M8.65625 25.8089C8.21699 25.8089 7.79571 25.6213 7.4851 25.2872C7.1745 24.9532 7 24.5001 7 24.0277V9.78125C7 9.30883 7.1745 8.85577 7.4851 8.52172C7.79571 8.18767 8.21699 8 8.65625 8H21.9062C22.3455 8 22.7668 8.18767 23.0774 8.52172C23.388 8.85577 23.5625 9.30883 23.5625 9.78125V24.0277C23.5625 24.5001 23.388 24.9532 23.0774 25.2872C22.7668 25.6213 22.3455 25.8089 21.9062 25.8089H8.65625ZM31.8438 25.8089C31.4045 25.8089 30.9832 25.6213 30.6726 25.2872C30.362 24.9532 30.1875 24.5001 30.1875 24.0277V9.78125C30.1875 9.30883 30.362 8.85577 30.6726 8.52172C30.9832 8.18767 31.4045 8 31.8438 8H45.0904C45.5297 8 45.951 8.18767 46.2616 8.52172C46.5722 8.85577 46.7467 9.30883 46.7467 9.78125V24.0277C46.7467 24.5001 46.5722 24.9532 46.2616 25.2872C45.951 25.6213 45.5297 25.8089 45.0904 25.8089H31.8438ZM8.65625 50.7464C8.21699 50.7464 7.79571 50.5588 7.4851 50.2247C7.1745 49.8907 7 49.4376 7 48.9652V34.7152C7 34.2428 7.1745 33.7897 7.4851 33.4557C7.79571 33.1216 8.21699 32.9339 8.65625 32.9339H21.9062C22.3455 32.9339 22.7668 33.1216 23.0774 33.4557C23.388 33.7897 23.5625 34.2428 23.5625 34.7152V48.9652C23.5625 49.4376 23.388 49.8907 23.0774 50.2247C22.7668 50.5588 22.3455 50.7464 21.9062 50.7464H8.65625ZM31.8438 50.7464C31.4045 50.7464 30.9832 50.5588 30.6726 50.2247C30.362 49.8907 30.1875 49.4376 30.1875 48.9652V34.7152C30.1875 34.2428 30.362 33.7897 30.6726 33.4557C30.9832 33.1216 31.4045 32.9339 31.8438 32.9339H45.0904C45.5297 32.9339 45.951 33.1216 46.2616 33.4557C46.5722 33.7897 46.7467 34.2428 46.7467 34.7152V48.9652C46.7467 49.4376 46.5722 49.8907 46.2616 50.2247C45.951 50.5588 45.5297 50.7464 45.0904 50.7464H31.8438Z" fill="white"/>
</svg>

