<svg width="57" height="57" viewBox="0 0 57 57" fill="none" xmlns="http://www.w3.org/2000/svg">
<path d="M19.6341 34.8652C19.1971 34.8652 18.9026 34.908 18.7506 34.9507V37.7485C18.9311 37.7912 19.1567 37.8031 19.4679 37.8031C20.6055 37.8031 21.3061 37.2284 21.3061 36.257C21.3061 35.3877 20.7029 34.8652 19.6341 34.8652ZM27.9157 34.8937C27.4407 34.8937 27.132 34.9365 26.9491 34.9792V41.178C27.132 41.2207 27.4265 41.2207 27.6925 41.2207C29.6329 41.235 30.8964 40.1662 30.8964 37.9052C30.9106 35.934 29.7587 34.8937 27.9157 34.8937Z" fill="black"/>
<path d="M33.25 4.75H14.25C12.9902 4.75 11.782 5.25044 10.8912 6.14124C10.0004 7.03204 9.5 8.24022 9.5 9.5V47.5C9.5 48.7598 10.0004 49.968 10.8912 50.8588C11.782 51.7495 12.9902 52.25 14.25 52.25H42.75C44.0098 52.25 45.218 51.7495 46.1088 50.8588C46.9995 49.968 47.5 48.7598 47.5 47.5V19L33.25 4.75ZM22.5577 38.4512C21.8239 39.14 20.7409 39.4487 19.4797 39.4487C19.2352 39.4514 18.9908 39.4371 18.7482 39.406V42.7927H16.625V33.4447C17.5832 33.3018 18.5514 33.2367 19.5201 33.25C20.843 33.25 21.7835 33.5017 22.4176 34.0076C23.0209 34.4874 23.4294 35.2735 23.4294 36.1997C23.427 37.1307 23.1182 37.9169 22.5577 38.4512ZM31.5994 41.6694C30.6019 42.4982 29.0842 42.8925 27.2294 42.8925C26.1179 42.8925 25.3317 42.8212 24.7974 42.75V33.4471C25.7559 33.3072 26.7238 33.2413 27.6925 33.25C29.4904 33.25 30.6589 33.573 31.5709 34.2617C32.5565 34.9932 33.174 36.1594 33.174 37.8337C33.174 39.6459 32.5114 40.8975 31.5994 41.6694ZM40.375 35.0787H36.7365V37.2424H40.1375V38.9856H36.7365V42.7951H34.5847V33.3212H40.375V35.0787ZM33.25 21.375H30.875V9.5L42.75 21.375H33.25Z" fill="black"/>
</svg>
