<svg width="30" height="29" viewBox="0 0 30 29" fill="none" xmlns="http://www.w3.org/2000/svg">
    <g clip-path="url(#clip0_167_382)">
    <path d="M4.6875 1.8125C4.19022 1.8125 3.71331 2.00346 3.36167 2.34337C3.01004 2.68328 2.8125 3.14429 2.8125 3.625V5.4375C2.8125 5.9182 3.01004 6.37922 3.36167 6.71913C3.71331 7.05904 4.19022 7.25 4.6875 7.25H5.625V23.5625C5.625 24.5239 6.02009 25.4459 6.72335 26.1258C7.42661 26.8056 8.38044 27.1875 9.375 27.1875H20.625C21.6196 27.1875 22.5734 26.8056 23.2766 26.1258C23.9799 25.4459 24.375 24.5239 24.375 23.5625V7.25H25.3125C25.8098 7.25 26.2867 7.05904 26.6383 6.71913C26.99 6.37922 27.1875 5.9182 27.1875 5.4375V3.625C27.1875 3.14429 26.99 2.68328 26.6383 2.34337C26.2867 2.00346 25.8098 1.8125 25.3125 1.8125H18.75C18.75 1.3318 18.5525 0.870779 18.2008 0.530869C17.8492 0.190959 17.3723 0 16.875 0L13.125 0C12.6277 0 12.1508 0.190959 11.7992 0.530869C11.4475 0.870779 11.25 1.3318 11.25 1.8125H4.6875ZM10.3125 9.0625C10.5611 9.0625 10.7996 9.15798 10.9754 9.32793C11.1512 9.49789 11.25 9.7284 11.25 9.96875V22.6562C11.25 22.8966 11.1512 23.1271 10.9754 23.2971C10.7996 23.467 10.5611 23.5625 10.3125 23.5625C10.0639 23.5625 9.8254 23.467 9.64959 23.2971C9.47377 23.1271 9.375 22.8966 9.375 22.6562V9.96875C9.375 9.7284 9.47377 9.49789 9.64959 9.32793C9.8254 9.15798 10.0639 9.0625 10.3125 9.0625ZM15 9.0625C15.2486 9.0625 15.4871 9.15798 15.6629 9.32793C15.8387 9.49789 15.9375 9.7284 15.9375 9.96875V22.6562C15.9375 22.8966 15.8387 23.1271 15.6629 23.2971C15.4871 23.467 15.2486 23.5625 15 23.5625C14.7514 23.5625 14.5129 23.467 14.3371 23.2971C14.1613 23.1271 14.0625 22.8966 14.0625 22.6562V9.96875C14.0625 9.7284 14.1613 9.49789 14.3371 9.32793C14.5129 9.15798 14.7514 9.0625 15 9.0625ZM20.625 9.96875V22.6562C20.625 22.8966 20.5262 23.1271 20.3504 23.2971C20.1746 23.467 19.9361 23.5625 19.6875 23.5625C19.4389 23.5625 19.2004 23.467 19.0246 23.2971C18.8488 23.1271 18.75 22.8966 18.75 22.6562V9.96875C18.75 9.7284 18.8488 9.49789 19.0246 9.32793C19.2004 9.15798 19.4389 9.0625 19.6875 9.0625C19.9361 9.0625 20.1746 9.15798 20.3504 9.32793C20.5262 9.49789 20.625 9.7284 20.625 9.96875Z" fill="#ffffff"/>
    </g>
    <defs>
    <clipPath id="clip0_167_382">
    <rect width="30" height="29" fill="white"/>
    </clipPath>
    </defs>
</svg>
    