<svg width="67" height="67" viewBox="0 0 67 67" fill="none" xmlns="http://www.w3.org/2000/svg">
<path d="M33.5 67C14.9985 67 0 52.0014 0 33.5C0 14.9985 14.9985 0 33.5 0C52.0014 0 67 14.9985 67 33.5C67 52.0015 52.0014 67 33.5 67ZM33.5 7.28262C19.0186 7.28262 7.28262 19.0222 7.28262 33.5C7.28262 47.9779 19.0186 59.7173 33.5 59.7173C47.9814 59.7173 59.7173 47.9779 59.7173 33.5C59.7173 19.0222 47.9814 7.28262 33.5 7.28262ZM40.0544 47.519H26.9456V32.6261H18.7527L33.5 18.7527L48.2473 32.6261H40.0544V47.519Z" fill="#296781"/>
</svg>
